<svg xmlns="http://www.w3.org/2000/svg" width="1600" height="940" viewBox="0 0 1600 940" font-family="Liberation Serif, Times New Roman, serif">
<rect width="1600" height="940" fill="#fff"/>
<defs><marker id="arr" viewBox="0 0 10 10" refX="9" refY="5" markerWidth="9" markerHeight="9" orient="auto-start-reverse"><path d="M 0 0 L 10 5 L 0 10 z" fill="#000"/></marker><marker id="open" viewBox="0 0 10 10" refX="10" refY="5" markerWidth="11" markerHeight="11" orient="auto"><path d="M 0 0 L 10 5 L 0 10" fill="none" stroke="#000"/></marker></defs>
<rect x="90.0" y="130.0" width="250.0" height="90.0" stroke="#000" fill="none" stroke-width="1.2"/>
<text x="215.0" y="171.0" text-anchor="middle" font-size="16" font-weight="bold">Браузер админа</text>
<text x="215.0" y="191.0" text-anchor="middle" font-size="14" font-style="italic">(внешний)</text>
<rect x="90.0" y="330.0" width="280.0" height="120.0" stroke="#000" fill="none" stroke-width="1.2"/>
<text x="230.0" y="386.0" text-anchor="middle" font-size="17" font-weight="bold">MavixWeb</text>
<text x="230.0" y="406.0" text-anchor="middle" font-size="14" font-style="italic">[Node.js, Express, JS]</text>
<rect x="560.0" y="295.0" width="340.0" height="155.0" stroke="#000" fill="none" stroke-width="1.6"/>
<text x="730.0" y="350.5" text-anchor="middle" font-size="16" font-weight="bold">MavixServer</text>
<text x="730.0" y="368.5" text-anchor="middle" font-size="13" font-style="italic">[Python, FastAPI,</text>
<text x="730.0" y="386.5" text-anchor="middle" font-size="13" font-style="italic">SQLAlchemy, Docker]</text>
<text x="730.0" y="404.5" text-anchor="middle" font-size="13" font-style="italic">REST · auth · WS-сигналинг</text>
<rect x="560.0" y="560.0" width="320.0" height="100.0" stroke="#000" fill="none" stroke-width="1.2"/>
<text x="720.0" y="606.0" text-anchor="middle" font-size="17" font-weight="bold">PostgreSQL</text>
<text x="720.0" y="626.0" text-anchor="middle" font-size="14" font-style="italic">[СУБД]</text>
<rect x="1130.0" y="130.0" width="320.0" height="145.0" stroke="#000" fill="none" stroke-width="1.2"/>
<text x="1290.0" y="189.5" text-anchor="middle" font-size="16" font-weight="bold">MavixDesktop</text>
<text x="1290.0" y="207.5" text-anchor="middle" font-size="13" font-style="italic">[Python, PySide6, aiortc]</text>
<text x="1290.0" y="225.5" text-anchor="middle" font-size="13" font-style="italic">приложение оператора</text>
<rect x="1130.0" y="560.0" width="320.0" height="145.0" stroke="#000" fill="none" stroke-width="1.2"/>
<text x="1290.0" y="619.5" text-anchor="middle" font-size="16" font-weight="bold">MavixBoard</text>
<text x="1290.0" y="637.5" text-anchor="middle" font-size="13" font-style="italic">[Python, GStreamer,</text>
<text x="1290.0" y="655.5" text-anchor="middle" font-size="13" font-style="italic">Raspberry Pi] — борт</text>
<polyline points="215.0,220.0 215.0,321.0" stroke="#000" fill="none" stroke-width="0.9" marker-end="url(#arr)"/>
<text x="225.0" y="285.0" text-anchor="start" font-size="14" >HTTPS</text>
<polyline points="370.0,390.0 551.0,390.0" stroke="#000" fill="none" stroke-width="0.9" marker-end="url(#arr)"/>
<text x="465.0" y="380.0" text-anchor="middle" font-size="14" >REST API (JWT)</text>
<polyline points="720.0,450.0 720.0,551.0" stroke="#000" fill="none" stroke-width="0.9" marker-end="url(#arr)"/>
<text x="732.0" y="510.0" text-anchor="start" font-size="13" >SQL (asyncpg)</text>
<polyline points="1180.0,275.0 1180.0,360.0 909.0,360.0" stroke="#000" fill="none" stroke-width="0.9" marker-end="url(#arr)"/>
<text x="1040.0" y="350.0" text-anchor="middle" font-size="13" >REST + WS-сигналинг</text>
<polyline points="1180.0,560.0 1180.0,405.0 909.0,405.0" stroke="#000" fill="none" stroke-width="0.9" marker-end="url(#arr)"/>
<text x="1040.0" y="422.0" text-anchor="middle" font-size="13" >WS-сигналинг + enrollment</text>
<polyline points="1380.0,275.0 1380.0,551.0" stroke="#000" fill="none" stroke-width="0.9" marker-end="url(#arr)"/>
<polyline points="1400.0,560.0 1400.0,284.0" stroke="#000" fill="none" stroke-width="0.9" marker-end="url(#arr)"/>
<text x="1418.0" y="398.0" text-anchor="start" font-size="13" >WebRTC:</text>
<text x="1418.0" y="416.0" text-anchor="start" font-size="13" >видео + data-</text>
<text x="1418.0" y="434.0" text-anchor="start" font-size="13" >каналы (P2P,</text>
<text x="1418.0" y="452.0" text-anchor="start" font-size="13" >STUN/TURN)</text>
<text x="800.0" y="918" text-anchor="middle" font-style="italic" font-size="17">Рисунок 3 – Диаграмма контейнеров (C4 Level 2) системы Mavix</text>
</svg>
