<svg xmlns="http://www.w3.org/2000/svg" width="1500" height="1060" viewBox="0 0 1500 1060" font-family="Liberation Serif, Times New Roman, serif">
<rect width="1500" height="1060" fill="#fff"/>
<defs><marker id="arr" viewBox="0 0 10 10" refX="9" refY="5" markerWidth="9" markerHeight="9" orient="auto-start-reverse"><path d="M 0 0 L 10 5 L 0 10 z" fill="#000"/></marker><marker id="open" viewBox="0 0 10 10" refX="10" refY="5" markerWidth="11" markerHeight="11" orient="auto"><path d="M 0 0 L 10 5 L 0 10" fill="none" stroke="#000"/></marker></defs>
<rect x="110.0" y="90.0" width="1290.0" height="770.0" stroke="#000" fill="none" stroke-width="1.6"/>
<text x="140.0" y="122.0" text-anchor="start" font-size="16" font-weight="bold">MavixServer  [Python, FastAPI, SQLAlchemy, Docker]</text>
<rect x="180.0" y="160.0" width="380.0" height="110.0" stroke="#000" fill="none" stroke-width="1.2"/>
<text x="370.0" y="202.0" text-anchor="middle" font-size="16" font-weight="bold">API-роутеры (FastAPI)</text>
<text x="370.0" y="220.0" text-anchor="middle" font-size="13" font-style="italic">auth · operators · deliveries</text>
<text x="370.0" y="238.0" text-anchor="middle" font-size="13" font-style="italic">drones · builds · ice</text>
<rect x="610.0" y="160.0" width="210.0" height="110.0" stroke="#000" fill="none" stroke-width="1.2"/>
<text x="715.0" y="202.0" text-anchor="middle" font-size="16" font-weight="bold">Core</text>
<text x="715.0" y="220.0" text-anchor="middle" font-size="13" font-style="italic">безопасность (JWT)</text>
<text x="715.0" y="238.0" text-anchor="middle" font-size="13" font-style="italic">email · config</text>
<rect x="870.0" y="160.0" width="430.0" height="110.0" stroke="#000" fill="none" stroke-width="1.2"/>
<text x="1085.0" y="202.0" text-anchor="middle" font-size="16" font-weight="bold">WS-сигналинг</text>
<text x="1085.0" y="220.0" text-anchor="middle" font-size="13" font-style="italic">gcs · admin · drone handlers</text>
<text x="1085.0" y="238.0" text-anchor="middle" font-size="13" font-style="italic">relay · notifier · registry</text>
<rect x="440.0" y="360.0" width="520.0" height="100.0" stroke="#000" fill="none" stroke-width="1.2"/>
<text x="700.0" y="406.0" text-anchor="middle" font-size="16" font-weight="bold">Сервисы (бизнес-логика)</text>
<text x="700.0" y="424.0" text-anchor="middle" font-size="13" font-style="italic">admin · operator · delivery · drone · build</text>
<rect x="480.0" y="510.0" width="440.0" height="95.0" stroke="#000" fill="none" stroke-width="1.2"/>
<text x="700.0" y="553.5" text-anchor="middle" font-size="16" font-weight="bold">Репозитории</text>
<text x="700.0" y="571.5" text-anchor="middle" font-size="13" font-style="italic">admin · operator · delivery · drone</text>
<rect x="510.0" y="650.0" width="380.0" height="90.0" stroke="#000" fill="none" stroke-width="1.2"/>
<text x="700.0" y="691.0" text-anchor="middle" font-size="16" font-weight="bold">Модели (SQLAlchemy ORM)</text>
<text x="700.0" y="709.0" text-anchor="middle" font-size="13" font-style="italic">Admin · Operator · Drone · Delivery</text>
<rect x="560.0" y="905.0" width="300.0" height="80.0" stroke="#000" fill="none" stroke-width="1.2"/>
<text x="710.0" y="941.0" text-anchor="middle" font-size="16" font-weight="bold">PostgreSQL</text>
<text x="710.0" y="961.0" text-anchor="middle" font-size="14" font-style="italic">(контейнер БД)</text>
<polyline points="560.0,210.0 596.0,210.0" stroke="#000" fill="none" stroke-width="0.9"/>
<polygon points="596.0,210.0 584.0,215.0 584.0,205.0" fill="#000" stroke="#000" stroke-width="0.6"/>
<text x="585.0" y="200.0" text-anchor="middle" font-size="13" >JWT</text>
<polyline points="870.0,210.0 834.0,210.0" stroke="#000" fill="none" stroke-width="0.9"/>
<polygon points="834.0,210.0 846.0,205.0 846.0,215.0" fill="#000" stroke="#000" stroke-width="0.6"/>
<text x="845.0" y="200.0" text-anchor="middle" font-size="13" >JWT</text>
<polyline points="370.0,270.0 370.0,405.0 426.0,405.0" stroke="#000" fill="none" stroke-width="0.9"/>
<polygon points="426.0,405.0 414.0,410.0 414.0,400.0" fill="#000" stroke="#000" stroke-width="0.6"/>
<text x="372.0" y="330.0" text-anchor="start" font-size="13" >вызов сервисов</text>
<polyline points="1085.0,270.0 1085.0,405.0 974.0,405.0" stroke="#000" fill="none" stroke-width="0.9"/>
<polygon points="974.0,405.0 986.0,400.0 986.0,410.0" fill="#000" stroke="#000" stroke-width="0.6"/>
<text x="1080.0" y="330.0" text-anchor="end" font-size="13" >сценарии заявок / сессий</text>
<polyline points="700.0,460.0 700.0,496.0" stroke="#000" fill="none" stroke-width="0.9"/>
<polygon points="700.0,496.0 695.0,484.0 705.0,484.0" fill="#000" stroke="#000" stroke-width="0.6"/>
<text x="712.0" y="492.0" text-anchor="start" font-size="13" >запросы</text>
<polyline points="700.0,605.0 700.0,636.0" stroke="#000" fill="none" stroke-width="0.9"/>
<polygon points="700.0,636.0 695.0,624.0 705.0,624.0" fill="#000" stroke="#000" stroke-width="0.6"/>
<text x="712.0" y="635.0" text-anchor="start" font-size="13" >ORM-объекты</text>
<polyline points="700.0,740.0 700.0,891.0" stroke="#000" fill="none" stroke-width="0.9"/>
<polygon points="700.0,891.0 695.0,879.0 705.0,879.0" fill="#000" stroke="#000" stroke-width="0.6"/>
<text x="712.0" y="830.0" text-anchor="start" font-size="13" >SQL (asyncpg)</text>
<text x="750.0" y="1038" text-anchor="middle" font-style="italic" font-size="17">Рисунок 4 – Диаграмма компонентов (C4 Level 3) контейнера MavixServer</text>
</svg>
