<svg xmlns="http://www.w3.org/2000/svg" width="1500" height="940" viewBox="0 0 1500 940" font-family="Liberation Serif, Times New Roman, serif">
<rect width="1500" height="940" fill="#fff"/>
<defs><marker id="arr" viewBox="0 0 10 10" refX="9" refY="5" markerWidth="9" markerHeight="9" orient="auto-start-reverse"><path d="M 0 0 L 10 5 L 0 10 z" fill="#000"/></marker><marker id="open" viewBox="0 0 10 10" refX="10" refY="5" markerWidth="11" markerHeight="11" orient="auto"><path d="M 0 0 L 10 5 L 0 10" fill="none" stroke="#000"/></marker></defs>
<rect x="560.0" y="360.0" width="380.0" height="140.0" stroke="#000" fill="none" stroke-width="1.6"/>
<text x="750.0" y="435.0" text-anchor="middle" font-size="18" font-weight="bold">Система Mavix</text>
<text x="750.0" y="458.0" text-anchor="middle" font-size="14" font-style="italic">Автоматизированная доставка</text>
<text x="750.0" y="476.0" text-anchor="middle" font-size="14" font-style="italic">малогабаритных грузов дронами</text>
<circle cx="180" cy="81" r="11" stroke="#000" fill="none" stroke-width="1.1"/>
<line x1="180.0" y1="92.0" x2="180.0" y2="126.0" stroke="#000" stroke-width="1.1"/>
<line x1="160.0" y1="104.0" x2="200.0" y2="104.0" stroke="#000" stroke-width="1.1"/>
<line x1="180.0" y1="126.0" x2="164.0" y2="148.0" stroke="#000" stroke-width="1.1"/>
<line x1="180.0" y1="126.0" x2="196.0" y2="148.0" stroke="#000" stroke-width="1.1"/>
<text x="180.0" y="168.0" text-anchor="middle" font-size="17" >Администратор</text>
<circle cx="1320" cy="81" r="11" stroke="#000" fill="none" stroke-width="1.1"/>
<line x1="1320.0" y1="92.0" x2="1320.0" y2="126.0" stroke="#000" stroke-width="1.1"/>
<line x1="1300.0" y1="104.0" x2="1340.0" y2="104.0" stroke="#000" stroke-width="1.1"/>
<line x1="1320.0" y1="126.0" x2="1304.0" y2="148.0" stroke="#000" stroke-width="1.1"/>
<line x1="1320.0" y1="126.0" x2="1336.0" y2="148.0" stroke="#000" stroke-width="1.1"/>
<text x="1320.0" y="168.0" text-anchor="middle" font-size="17" >Оператор</text>
<rect x="60.0" y="740.0" width="270.0" height="100.0" stroke="#000" fill="none" stroke-width="1.2"/>
<text x="195.0" y="776.0" text-anchor="middle" font-size="16" font-weight="bold">SMTP-сервер</text>
<text x="195.0" y="798.0" text-anchor="middle" font-size="13" font-style="italic">почта</text>
<text x="195.0" y="820.0" text-anchor="middle" font-size="12" font-style="italic">(вне скоупа ВКР)</text>
<rect x="430.0" y="740.0" width="270.0" height="100.0" stroke="#000" fill="none" stroke-width="1.2"/>
<text x="565.0" y="776.0" text-anchor="middle" font-size="16" font-weight="bold">STUN / TURN</text>
<text x="565.0" y="798.0" text-anchor="middle" font-size="13" font-style="italic">NAT traversal</text>
<text x="565.0" y="820.0" text-anchor="middle" font-size="12" font-style="italic">(вне скоупа ВКР)</text>
<rect x="800.0" y="740.0" width="270.0" height="100.0" stroke="#000" fill="none" stroke-width="1.2"/>
<text x="935.0" y="776.0" text-anchor="middle" font-size="16" font-weight="bold">Nominatim</text>
<text x="935.0" y="798.0" text-anchor="middle" font-size="13" font-style="italic">геокодирование</text>
<text x="935.0" y="820.0" text-anchor="middle" font-size="12" font-style="italic">(вне скоупа ВКР)</text>
<rect x="1170.0" y="740.0" width="270.0" height="100.0" stroke="#000" fill="none" stroke-width="1.2"/>
<text x="1305.0" y="776.0" text-anchor="middle" font-size="16" font-weight="bold">QGroundControl</text>
<text x="1305.0" y="798.0" text-anchor="middle" font-size="13" font-style="italic">MAVLink-полёт</text>
<text x="1305.0" y="820.0" text-anchor="middle" font-size="12" font-style="italic">(вне скоупа ВКР)</text>
<polyline points="230.0,150.0 690.0,150.0 690.0,351.0" stroke="#000" fill="none" stroke-width="0.9" marker-end="url(#arr)"/>
<text x="300.0" y="140.0" text-anchor="start" font-size="14" >HTTPS: операторы, дроны, заявки</text>
<polyline points="1270.0,150.0 810.0,150.0 810.0,351.0" stroke="#000" fill="none" stroke-width="0.9" marker-end="url(#arr)"/>
<text x="1240.0" y="140.0" text-anchor="end" font-size="14" >Веб/Desktop: приём заявок,</text>
<text x="1240.0" y="158.0" text-anchor="end" font-size="14" >видео + телеметрия (WebRTC)</text>
<polyline points="750.0,500.0 750.0,640.0 195.0,640.0 195.0,731.0" stroke="#000" fill="none" stroke-width="0.9" marker-end="url(#arr)"/>
<text x="195.0" y="730.0" text-anchor="middle" font-size="13" >письма операторам</text>
<polyline points="750.0,500.0 750.0,640.0 565.0,640.0 565.0,731.0" stroke="#000" fill="none" stroke-width="0.9" marker-end="url(#arr)"/>
<text x="565.0" y="730.0" text-anchor="middle" font-size="13" >ICE-кандидаты</text>
<polyline points="750.0,500.0 750.0,640.0 935.0,640.0 935.0,731.0" stroke="#000" fill="none" stroke-width="0.9" marker-end="url(#arr)"/>
<text x="935.0" y="730.0" text-anchor="middle" font-size="13" >обратное геокодирование</text>
<polyline points="1320.0,218.0 1320.0,690.0 1305.0,690.0 1305.0,731.0" stroke="#000" fill="none" stroke-width="0.9" marker-end="url(#arr)"/>
<text x="1315.0" y="682.0" text-anchor="middle" font-size="13" >ручной MAVLink-полёт</text>
<text x="750.0" y="918" text-anchor="middle" font-style="italic" font-size="17">Рисунок 2 – Контекстная диаграмма (C4 Level 1) системы Mavix</text>
</svg>
