<svg xmlns="http://www.w3.org/2000/svg" width="1520" height="1060" viewBox="0 0 1520 1060" font-family="Liberation Serif, Times New Roman, serif">
<rect width="1520" height="1060" fill="#fff"/>
<defs><marker id="arr" viewBox="0 0 10 10" refX="9" refY="5" markerWidth="9" markerHeight="9" orient="auto-start-reverse"><path d="M 0 0 L 10 5 L 0 10 z" fill="#000"/></marker><marker id="open" viewBox="0 0 10 10" refX="10" refY="5" markerWidth="11" markerHeight="11" orient="auto"><path d="M 0 0 L 10 5 L 0 10" fill="none" stroke="#000"/></marker></defs>
<rect x="590.0" y="90.0" width="340.0" height="172.0" stroke="#000" fill="none" stroke-width="1.2"/>
<text x="760.0" y="106.0" text-anchor="middle" font-size="12" font-style="italic">«entity»</text>
<text x="760.0" y="123.0" text-anchor="middle" font-size="16" font-weight="bold">Admin</text>
<line x1="590.0" y1="136.0" x2="930.0" y2="136.0" stroke="#000" stroke-width="1.0"/>
<text x="599.0" y="151.0" text-anchor="start" font-size="13" >+ admin_id: str «PK»</text>
<text x="599.0" y="172.0" text-anchor="start" font-size="13" >+ email: str «unique»</text>
<text x="599.0" y="193.0" text-anchor="start" font-size="13" >+ password: str</text>
<text x="599.0" y="214.0" text-anchor="start" font-size="13" >+ full_name: str | None</text>
<text x="599.0" y="235.0" text-anchor="start" font-size="13" >+ enrollment_token: str «unique»</text>
<text x="599.0" y="256.0" text-anchor="start" font-size="13" >+ created_at: datetime</text>
<rect x="110.0" y="470.0" width="330.0" height="193.0" stroke="#000" fill="none" stroke-width="1.2"/>
<text x="275.0" y="486.0" text-anchor="middle" font-size="12" font-style="italic">«entity»</text>
<text x="275.0" y="503.0" text-anchor="middle" font-size="16" font-weight="bold">Operator</text>
<line x1="110.0" y1="516.0" x2="440.0" y2="516.0" stroke="#000" stroke-width="1.0"/>
<text x="119.0" y="531.0" text-anchor="start" font-size="13" >+ operator_id: str «PK»</text>
<text x="119.0" y="552.0" text-anchor="start" font-size="13" >+ admin_id: str «FK»</text>
<text x="119.0" y="573.0" text-anchor="start" font-size="13" >+ username: str «unique»</text>
<text x="119.0" y="594.0" text-anchor="start" font-size="13" >+ full_name: str</text>
<text x="119.0" y="615.0" text-anchor="start" font-size="13" >+ passport: str</text>
<text x="119.0" y="636.0" text-anchor="start" font-size="13" >+ address: str</text>
<text x="119.0" y="657.0" text-anchor="start" font-size="13" >+ is_active: bool</text>
<rect x="1080.0" y="470.0" width="330.0" height="151.0" stroke="#000" fill="none" stroke-width="1.2"/>
<text x="1245.0" y="486.0" text-anchor="middle" font-size="12" font-style="italic">«entity»</text>
<text x="1245.0" y="503.0" text-anchor="middle" font-size="16" font-weight="bold">Drone</text>
<line x1="1080.0" y1="516.0" x2="1410.0" y2="516.0" stroke="#000" stroke-width="1.0"/>
<text x="1089.0" y="531.0" text-anchor="start" font-size="13" >+ drone_id: str «PK»</text>
<text x="1089.0" y="552.0" text-anchor="start" font-size="13" >+ admin_id: str «FK»</text>
<text x="1089.0" y="573.0" text-anchor="start" font-size="13" >+ drone_token: str «unique»</text>
<text x="1089.0" y="594.0" text-anchor="start" font-size="13" >+ name: str | None</text>
<text x="1089.0" y="615.0" text-anchor="start" font-size="13" >+ enrolled_at: datetime | None</text>
<rect x="560.0" y="560.0" width="400.0" height="214.0" stroke="#000" fill="none" stroke-width="1.2"/>
<text x="760.0" y="576.0" text-anchor="middle" font-size="12" font-style="italic">«entity»</text>
<text x="760.0" y="593.0" text-anchor="middle" font-size="16" font-weight="bold">Delivery</text>
<line x1="560.0" y1="606.0" x2="960.0" y2="606.0" stroke="#000" stroke-width="1.0"/>
<text x="569.0" y="621.0" text-anchor="start" font-size="13" >+ delivery_id: str «PK»</text>
<text x="569.0" y="642.0" text-anchor="start" font-size="13" >+ status: str</text>
<text x="569.0" y="663.0" text-anchor="start" font-size="13" >+ drone_id: str | None «FK»</text>
<text x="569.0" y="684.0" text-anchor="start" font-size="13" >+ operator_id: str | None «FK»</text>
<text x="569.0" y="705.0" text-anchor="start" font-size="13" >+ destination_lat/lon: float</text>
<text x="569.0" y="726.0" text-anchor="start" font-size="13" >+ drone_name: str | None ⟨снимок⟩</text>
<text x="569.0" y="747.0" text-anchor="start" font-size="13" >+ operator_name: str | None ⟨снимок⟩</text>
<text x="569.0" y="768.0" text-anchor="start" font-size="13" >+ created_at / accepted_at: datetime</text>
<rect x="1090.0" y="840.0" width="320.0" height="151.0" stroke="#000" fill="none" stroke-width="1.2"/>
<text x="1250.0" y="856.0" text-anchor="middle" font-size="12" font-style="italic">«enumeration»</text>
<text x="1250.0" y="873.0" text-anchor="middle" font-size="16" font-weight="bold">DeliveryStatus</text>
<line x1="1090.0" y1="886.0" x2="1410.0" y2="886.0" stroke="#000" stroke-width="1.0"/>
<text x="1099.0" y="901.0" text-anchor="start" font-size="13" >OFFERED</text>
<text x="1099.0" y="922.0" text-anchor="start" font-size="13" >ACCEPTED</text>
<text x="1099.0" y="943.0" text-anchor="start" font-size="13" >IN_FLIGHT</text>
<text x="1099.0" y="964.0" text-anchor="start" font-size="13" >DELIVERED</text>
<text x="1099.0" y="985.0" text-anchor="start" font-size="13" >CANCELLED</text>
<polyline points="590.0,150.0 350.0,150.0 350.0,461.0" stroke="#000" fill="none" stroke-width="0.9" marker-end="url(#arr)"/>
<polygon points="590,141 581,150 572,150 581,159" fill="#000" stroke="#000"/>
<text x="360.0" y="142.0" text-anchor="start" font-size="12" >1</text>
<text x="335.0" y="462.0" text-anchor="end" font-size="12" >1..*</text>
<polyline points="930.0,150.0 1245.0,150.0 1245.0,461.0" stroke="#000" fill="none" stroke-width="0.9" marker-end="url(#arr)"/>
<polygon points="930,141 939,150 948,150 939,159" fill="#000" stroke="#000"/>
<text x="1160.0" y="142.0" text-anchor="end" font-size="12" >1</text>
<text x="1255.0" y="462.0" text-anchor="start" font-size="12" >1..*</text>
<polyline points="760.0,262.0 760.0,551.0" stroke="#000" fill="none" stroke-width="0.9" marker-end="url(#arr)"/>
<polygon points="751,262 760,271 760,280 769,271" fill="#000" stroke="#000"/>
<text x="770.0" y="288.0" text-anchor="start" font-size="12" >1</text>
<text x="770.0" y="552.0" text-anchor="start" font-size="12" >1..*</text>
<polyline points="440.0,660.0 551.0,660.0" stroke="#000" fill="none" stroke-width="0.9" marker-end="url(#arr)"/>
<text x="448.0" y="652.0" text-anchor="start" font-size="12" >1</text>
<text x="552.0" y="652.0" text-anchor="end" font-size="12" >0..*</text>
<polyline points="1080.0,640.0 969.0,640.0" stroke="#000" fill="none" stroke-width="0.9" marker-end="url(#arr)"/>
<text x="1072.0" y="632.0" text-anchor="end" font-size="12" >1</text>
<text x="968.0" y="632.0" text-anchor="start" font-size="12" >0..*</text>
<polyline points="960.0,760.0 1090.0,760.0 1090.0,906.5" stroke="#000" fill="none" stroke-width="0.9" stroke-dasharray="6 5" marker-end="url(#open)"/>
<text x="1025.0" y="752.0" text-anchor="middle" font-size="12" >«использует»</text>
<text x="760.0" y="1038" text-anchor="middle" font-style="italic" font-size="17">Рисунок 7 – Диаграмма классов доменной модели MavixServer</text>
</svg>
