<svg xmlns="http://www.w3.org/2000/svg" width="900" height="620" viewBox="0 0 900 620" font-family="Liberation Serif, Times New Roman, serif">
<rect width="900" height="620" fill="#fff"/>
<defs><marker id="arr" viewBox="0 0 10 10" refX="9" refY="5" markerWidth="9" markerHeight="9" orient="auto-start-reverse"><path d="M 0 0 L 10 5 L 0 10 z" fill="#000"/></marker><marker id="open" viewBox="0 0 10 10" refX="10" refY="5" markerWidth="11" markerHeight="11" orient="auto"><path d="M 0 0 L 10 5 L 0 10" fill="none" stroke="#000"/></marker></defs>
<line x1="150.0" y1="120.0" x2="150.0" y2="520.0" stroke="#000" stroke-width="1.3"/>
<line x1="150.0" y1="520.0" x2="790.0" y2="520.0" stroke="#000" stroke-width="1.3"/>
<line x1="144.0" y1="520.0" x2="150.0" y2="520.0" stroke="#000" stroke-width="0.8"/>
<text x="134.0" y="525.0" text-anchor="end" font-size="12" >0</text>
<line x1="144.0" y1="440.0" x2="150.0" y2="440.0" stroke="#000" stroke-width="0.8"/>
<text x="134.0" y="445.0" text-anchor="end" font-size="12" >20</text>
<line x1="144.0" y1="360.0" x2="150.0" y2="360.0" stroke="#000" stroke-width="0.8"/>
<text x="134.0" y="365.0" text-anchor="end" font-size="12" >40</text>
<line x1="144.0" y1="280.0" x2="150.0" y2="280.0" stroke="#000" stroke-width="0.8"/>
<text x="134.0" y="285.0" text-anchor="end" font-size="12" >60</text>
<line x1="144.0" y1="200.0" x2="150.0" y2="200.0" stroke="#000" stroke-width="0.8"/>
<text x="134.0" y="205.0" text-anchor="end" font-size="12" >80</text>
<line x1="144.0" y1="120.0" x2="150.0" y2="120.0" stroke="#000" stroke-width="0.8"/>
<text x="134.0" y="125.0" text-anchor="end" font-size="12" >100</text>
<text x="106.0" y="320.0" text-anchor="middle" font-size="13" >%</text>
<rect x="220.0" y="196.0" width="130.0" height="324.0" stroke="#000" fill="none" stroke-width="1.2"/>
<text x="285.0" y="182.0" text-anchor="middle" font-size="15" font-weight="bold">81%</text>
<text x="285.0" y="544.0" text-anchor="middle" font-size="13" >MavixBoard</text>
<text x="285.0" y="564.0" text-anchor="middle" font-size="11.5" font-style="italic">299 тестов</text>
<rect x="430.0" y="232.0" width="130.0" height="288.0" stroke="#000" fill="none" stroke-width="1.2"/>
<text x="495.0" y="218.0" text-anchor="middle" font-size="15" font-weight="bold">72%</text>
<text x="495.0" y="544.0" text-anchor="middle" font-size="13" >MavixDesktop</text>
<text x="495.0" y="564.0" text-anchor="middle" font-size="11.5" font-style="italic">281 тест</text>
<rect x="640.0" y="200.0" width="130.0" height="320.0" stroke="#000" fill="none" stroke-width="1.2"/>
<text x="705.0" y="186.0" text-anchor="middle" font-size="15" font-weight="bold">80%</text>
<text x="705.0" y="544.0" text-anchor="middle" font-size="13" >MavixServer</text>
<text x="705.0" y="564.0" text-anchor="middle" font-size="11.5" font-style="italic">341 тест</text>
<text x="450.0" y="598" text-anchor="middle" font-style="italic" font-size="17">Рисунок — Покрытие кода тестами по компонентам</text>
</svg>
