<svg xmlns="http://www.w3.org/2000/svg" width="1320" height="1050" viewBox="0 0 1320 1050" font-family="Liberation Serif, Times New Roman, serif">
<rect width="1320" height="1050" fill="#fff"/>
<polyline points="460.0,130.0 425.0,130.0" stroke="#000" fill="none" stroke-width="0.9"/>
<line x1="448" y1="123" x2="448" y2="137" stroke="#000" stroke-width="1.0"/>
<line x1="425" y1="130" x2="438" y2="122" stroke="#000" stroke-width="0.9"/><line x1="425" y1="130" x2="438" y2="130" stroke="#000" stroke-width="0.9"/><line x1="425" y1="130" x2="438" y2="138" stroke="#000" stroke-width="0.9"/>
<polyline points="865.0,130.0 900.0,130.0" stroke="#000" fill="none" stroke-width="0.9"/>
<line x1="877" y1="123" x2="877" y2="137" stroke="#000" stroke-width="1.0"/>
<line x1="900" y1="130" x2="887" y2="122" stroke="#000" stroke-width="0.9"/><line x1="900" y1="130" x2="887" y2="130" stroke="#000" stroke-width="0.9"/><line x1="900" y1="130" x2="887" y2="138" stroke="#000" stroke-width="0.9"/>
<polyline points="662.5,289.0 662.5,470.0" stroke="#000" fill="none" stroke-width="0.9"/>
<line x1="655.5" y1="301" x2="669.5" y2="301" stroke="#000" stroke-width="1.0"/>
<line x1="662.5" y1="470" x2="654.5" y2="457" stroke="#000" stroke-width="0.9"/><line x1="662.5" y1="470" x2="662.5" y2="457" stroke="#000" stroke-width="0.9"/><line x1="662.5" y1="470" x2="670.5" y2="457" stroke="#000" stroke-width="0.9"/>
<polyline points="1102.5,289.0 1102.5,415.0 940.0,415.0 940.0,540.0 865.0,540.0" stroke="#000" fill="none" stroke-width="0.9"/>
<line x1="1095.5" y1="301" x2="1109.5" y2="301" stroke="#000" stroke-width="1.0"/>
<line x1="865" y1="540" x2="878" y2="532" stroke="#000" stroke-width="0.9"/><line x1="865" y1="540" x2="878" y2="540" stroke="#000" stroke-width="0.9"/><line x1="865" y1="540" x2="878" y2="548" stroke="#000" stroke-width="0.9"/>
<polyline points="222.5,361.0 222.5,445.0 385.0,445.0 385.0,600.0 460.0,600.0" stroke="#000" fill="none" stroke-width="0.9"/>
<line x1="215.5" y1="373" x2="229.5" y2="373" stroke="#000" stroke-width="1.0"/>
<line x1="460" y1="600" x2="447" y2="592" stroke="#000" stroke-width="0.9"/><line x1="460" y1="600" x2="447" y2="600" stroke="#000" stroke-width="0.9"/><line x1="460" y1="600" x2="447" y2="608" stroke="#000" stroke-width="0.9"/>
<rect x="20" y="70" width="405" height="291" stroke="#000" fill="none" stroke-width="1.2"/>
<text x="222.5" y="89" text-anchor="middle" font-style="italic" font-size="17" font-weight="bold">operators</text>
<line x1="20" y1="98" x2="425" y2="98" stroke="#000" stroke-width="1.1"/>
<text x="112.5" y="114" text-anchor="middle" font-size="12" font-weight="bold">Атрибут</text>
<text x="265.0" y="114" text-anchor="middle" font-size="12" font-weight="bold">Тип</text>
<text x="375.0" y="114" text-anchor="middle" font-size="12" font-weight="bold">Ограничения</text>
<line x1="20" y1="121" x2="425" y2="121" stroke="#000" stroke-width="0.9"/>
<line x1="205" y1="98" x2="205" y2="361" stroke="#000" stroke-width="0.7"/>
<line x1="325" y1="98" x2="325" y2="361" stroke="#000" stroke-width="0.7"/>
<text x="28" y="137" font-size="14">operator_id</text>
<text x="213" y="137" font-size="14" font-style="italic">varchar(32)</text>
<text x="333" y="137" font-size="14">PK</text>
<line x1="20" y1="145" x2="425" y2="145" stroke="#000" stroke-width="0.4"/>
<text x="28" y="161" font-size="14">admin_id</text>
<text x="213" y="161" font-size="14" font-style="italic">varchar(32)</text>
<text x="333" y="161" font-size="14">FK, NN</text>
<line x1="20" y1="169" x2="425" y2="169" stroke="#000" stroke-width="0.4"/>
<text x="28" y="185" font-size="14">username</text>
<text x="213" y="185" font-size="14" font-style="italic">varchar(64)</text>
<text x="333" y="185" font-size="14">UQ, NN</text>
<line x1="20" y1="193" x2="425" y2="193" stroke="#000" stroke-width="0.4"/>
<text x="28" y="209" font-size="14">password</text>
<text x="213" y="209" font-size="14" font-style="italic">varchar(256)</text>
<text x="333" y="209" font-size="14">NN</text>
<line x1="20" y1="217" x2="425" y2="217" stroke="#000" stroke-width="0.4"/>
<text x="28" y="233" font-size="14">full_name</text>
<text x="213" y="233" font-size="14" font-style="italic">varchar(254)</text>
<text x="333" y="233" font-size="14">NN</text>
<line x1="20" y1="241" x2="425" y2="241" stroke="#000" stroke-width="0.4"/>
<text x="28" y="257" font-size="14">passport</text>
<text x="213" y="257" font-size="14" font-style="italic">varchar(32)</text>
<text x="333" y="257" font-size="14">NN</text>
<line x1="20" y1="265" x2="425" y2="265" stroke="#000" stroke-width="0.4"/>
<text x="28" y="281" font-size="14">address</text>
<text x="213" y="281" font-size="14" font-style="italic">varchar(512)</text>
<text x="333" y="281" font-size="14">NN</text>
<line x1="20" y1="289" x2="425" y2="289" stroke="#000" stroke-width="0.4"/>
<text x="28" y="305" font-size="14">is_active</text>
<text x="213" y="305" font-size="14" font-style="italic">bool</text>
<text x="333" y="305" font-size="14">NN</text>
<line x1="20" y1="313" x2="425" y2="313" stroke="#000" stroke-width="0.4"/>
<text x="28" y="329" font-size="14">created_at</text>
<text x="213" y="329" font-size="14" font-style="italic">timestamptz</text>
<text x="333" y="329" font-size="14">NN</text>
<line x1="20" y1="337" x2="425" y2="337" stroke="#000" stroke-width="0.4"/>
<text x="28" y="353" font-size="14">updated_at</text>
<text x="213" y="353" font-size="14" font-style="italic">timestamptz</text>
<text x="333" y="353" font-size="14">NN</text>
<rect x="460" y="70" width="405" height="219" stroke="#000" fill="none" stroke-width="1.2"/>
<text x="662.5" y="89" text-anchor="middle" font-style="italic" font-size="17" font-weight="bold">admins</text>
<line x1="460" y1="98" x2="865" y2="98" stroke="#000" stroke-width="1.1"/>
<text x="552.5" y="114" text-anchor="middle" font-size="12" font-weight="bold">Атрибут</text>
<text x="705.0" y="114" text-anchor="middle" font-size="12" font-weight="bold">Тип</text>
<text x="815.0" y="114" text-anchor="middle" font-size="12" font-weight="bold">Ограничения</text>
<line x1="460" y1="121" x2="865" y2="121" stroke="#000" stroke-width="0.9"/>
<line x1="645" y1="98" x2="645" y2="289" stroke="#000" stroke-width="0.7"/>
<line x1="765" y1="98" x2="765" y2="289" stroke="#000" stroke-width="0.7"/>
<text x="468" y="137" font-size="14">admin_id</text>
<text x="653" y="137" font-size="14" font-style="italic">varchar(32)</text>
<text x="773" y="137" font-size="14">PK</text>
<line x1="460" y1="145" x2="865" y2="145" stroke="#000" stroke-width="0.4"/>
<text x="468" y="161" font-size="14">email</text>
<text x="653" y="161" font-size="14" font-style="italic">varchar(254)</text>
<text x="773" y="161" font-size="14">UQ, NN</text>
<line x1="460" y1="169" x2="865" y2="169" stroke="#000" stroke-width="0.4"/>
<text x="468" y="185" font-size="14">password</text>
<text x="653" y="185" font-size="14" font-style="italic">varchar(256)</text>
<text x="773" y="185" font-size="14">NN</text>
<line x1="460" y1="193" x2="865" y2="193" stroke="#000" stroke-width="0.4"/>
<text x="468" y="209" font-size="14">full_name</text>
<text x="653" y="209" font-size="14" font-style="italic">varchar(254)</text>
<text x="773" y="209" font-size="14">NULL</text>
<line x1="460" y1="217" x2="865" y2="217" stroke="#000" stroke-width="0.4"/>
<text x="468" y="233" font-size="14">enrollment_token</text>
<text x="653" y="233" font-size="14" font-style="italic">varchar(64)</text>
<text x="773" y="233" font-size="14">UQ, NN</text>
<line x1="460" y1="241" x2="865" y2="241" stroke="#000" stroke-width="0.4"/>
<text x="468" y="257" font-size="14">created_at</text>
<text x="653" y="257" font-size="14" font-style="italic">timestamptz</text>
<text x="773" y="257" font-size="14">NN</text>
<line x1="460" y1="265" x2="865" y2="265" stroke="#000" stroke-width="0.4"/>
<text x="468" y="281" font-size="14">updated_at</text>
<text x="653" y="281" font-size="14" font-style="italic">timestamptz</text>
<text x="773" y="281" font-size="14">NN</text>
<rect x="900" y="70" width="405" height="219" stroke="#000" fill="none" stroke-width="1.2"/>
<text x="1102.5" y="89" text-anchor="middle" font-style="italic" font-size="17" font-weight="bold">drones</text>
<line x1="900" y1="98" x2="1305" y2="98" stroke="#000" stroke-width="1.1"/>
<text x="992.5" y="114" text-anchor="middle" font-size="12" font-weight="bold">Атрибут</text>
<text x="1145.0" y="114" text-anchor="middle" font-size="12" font-weight="bold">Тип</text>
<text x="1255.0" y="114" text-anchor="middle" font-size="12" font-weight="bold">Ограничения</text>
<line x1="900" y1="121" x2="1305" y2="121" stroke="#000" stroke-width="0.9"/>
<line x1="1085" y1="98" x2="1085" y2="289" stroke="#000" stroke-width="0.7"/>
<line x1="1205" y1="98" x2="1205" y2="289" stroke="#000" stroke-width="0.7"/>
<text x="908" y="137" font-size="14">drone_id</text>
<text x="1093" y="137" font-size="14" font-style="italic">varchar(64)</text>
<text x="1213" y="137" font-size="14">PK</text>
<line x1="900" y1="145" x2="1305" y2="145" stroke="#000" stroke-width="0.4"/>
<text x="908" y="161" font-size="14">admin_id</text>
<text x="1093" y="161" font-size="14" font-style="italic">varchar(32)</text>
<text x="1213" y="161" font-size="14">FK, NN</text>
<line x1="900" y1="169" x2="1305" y2="169" stroke="#000" stroke-width="0.4"/>
<text x="908" y="185" font-size="14">drone_token</text>
<text x="1093" y="185" font-size="14" font-style="italic">varchar(64)</text>
<text x="1213" y="185" font-size="14">UQ, NN</text>
<line x1="900" y1="193" x2="1305" y2="193" stroke="#000" stroke-width="0.4"/>
<text x="908" y="209" font-size="14">name</text>
<text x="1093" y="209" font-size="14" font-style="italic">varchar(64)</text>
<text x="1213" y="209" font-size="14">NULL</text>
<line x1="900" y1="217" x2="1305" y2="217" stroke="#000" stroke-width="0.4"/>
<text x="908" y="233" font-size="14">enrolled_at</text>
<text x="1093" y="233" font-size="14" font-style="italic">timestamptz</text>
<text x="1213" y="233" font-size="14">NULL</text>
<line x1="900" y1="241" x2="1305" y2="241" stroke="#000" stroke-width="0.4"/>
<text x="908" y="257" font-size="14">created_at</text>
<text x="1093" y="257" font-size="14" font-style="italic">timestamptz</text>
<text x="1213" y="257" font-size="14">NN</text>
<line x1="900" y1="265" x2="1305" y2="265" stroke="#000" stroke-width="0.4"/>
<text x="908" y="281" font-size="14">last_seen_at</text>
<text x="1093" y="281" font-size="14" font-style="italic">timestamptz</text>
<text x="1213" y="281" font-size="14">NULL</text>
<rect x="460" y="470" width="405" height="507" stroke="#000" fill="none" stroke-width="1.2"/>
<text x="662.5" y="489" text-anchor="middle" font-style="italic" font-size="17" font-weight="bold">deliveries</text>
<line x1="460" y1="498" x2="865" y2="498" stroke="#000" stroke-width="1.1"/>
<text x="552.5" y="514" text-anchor="middle" font-size="12" font-weight="bold">Атрибут</text>
<text x="705.0" y="514" text-anchor="middle" font-size="12" font-weight="bold">Тип</text>
<text x="815.0" y="514" text-anchor="middle" font-size="12" font-weight="bold">Ограничения</text>
<line x1="460" y1="521" x2="865" y2="521" stroke="#000" stroke-width="0.9"/>
<line x1="645" y1="498" x2="645" y2="977" stroke="#000" stroke-width="0.7"/>
<line x1="765" y1="498" x2="765" y2="977" stroke="#000" stroke-width="0.7"/>
<text x="468" y="537" font-size="14">delivery_id</text>
<text x="653" y="537" font-size="14" font-style="italic">varchar(32)</text>
<text x="773" y="537" font-size="14">PK</text>
<line x1="460" y1="545" x2="865" y2="545" stroke="#000" stroke-width="0.4"/>
<text x="468" y="561" font-size="14">admin_id</text>
<text x="653" y="561" font-size="14" font-style="italic">varchar(32)</text>
<text x="773" y="561" font-size="14">FK, NN</text>
<line x1="460" y1="569" x2="865" y2="569" stroke="#000" stroke-width="0.4"/>
<text x="468" y="585" font-size="14">drone_id</text>
<text x="653" y="585" font-size="14" font-style="italic">varchar(64)</text>
<text x="773" y="585" font-size="14">FK, NULL</text>
<line x1="460" y1="593" x2="865" y2="593" stroke="#000" stroke-width="0.4"/>
<text x="468" y="609" font-size="14">operator_id</text>
<text x="653" y="609" font-size="14" font-style="italic">varchar(32)</text>
<text x="773" y="609" font-size="14">FK, NULL</text>
<line x1="460" y1="617" x2="865" y2="617" stroke="#000" stroke-width="0.4"/>
<text x="468" y="633" font-size="14">drone_name</text>
<text x="653" y="633" font-size="14" font-style="italic">varchar(64)</text>
<text x="773" y="633" font-size="14">NULL</text>
<line x1="460" y1="641" x2="865" y2="641" stroke="#000" stroke-width="0.4"/>
<text x="468" y="657" font-size="14">operator_name</text>
<text x="653" y="657" font-size="14" font-style="italic">varchar(254)</text>
<text x="773" y="657" font-size="14">NULL</text>
<line x1="460" y1="665" x2="865" y2="665" stroke="#000" stroke-width="0.4"/>
<text x="468" y="681" font-size="14">operator_passport</text>
<text x="653" y="681" font-size="14" font-style="italic">varchar(32)</text>
<text x="773" y="681" font-size="14">NULL</text>
<line x1="460" y1="689" x2="865" y2="689" stroke="#000" stroke-width="0.4"/>
<text x="468" y="705" font-size="14">status</text>
<text x="653" y="705" font-size="14" font-style="italic">varchar(16)</text>
<text x="773" y="705" font-size="14">NN</text>
<line x1="460" y1="713" x2="865" y2="713" stroke="#000" stroke-width="0.4"/>
<text x="468" y="729" font-size="14">departure_address</text>
<text x="653" y="729" font-size="14" font-style="italic">varchar(512)</text>
<text x="773" y="729" font-size="14">NULL</text>
<line x1="460" y1="737" x2="865" y2="737" stroke="#000" stroke-width="0.4"/>
<text x="468" y="753" font-size="14">departure_lat</text>
<text x="653" y="753" font-size="14" font-style="italic">float</text>
<text x="773" y="753" font-size="14">NULL</text>
<line x1="460" y1="761" x2="865" y2="761" stroke="#000" stroke-width="0.4"/>
<text x="468" y="777" font-size="14">departure_lon</text>
<text x="653" y="777" font-size="14" font-style="italic">float</text>
<text x="773" y="777" font-size="14">NULL</text>
<line x1="460" y1="785" x2="865" y2="785" stroke="#000" stroke-width="0.4"/>
<text x="468" y="801" font-size="14">destination_address</text>
<text x="653" y="801" font-size="14" font-style="italic">varchar(512)</text>
<text x="773" y="801" font-size="14">NULL</text>
<line x1="460" y1="809" x2="865" y2="809" stroke="#000" stroke-width="0.4"/>
<text x="468" y="825" font-size="14">destination_lat</text>
<text x="653" y="825" font-size="14" font-style="italic">float</text>
<text x="773" y="825" font-size="14">NULL</text>
<line x1="460" y1="833" x2="865" y2="833" stroke="#000" stroke-width="0.4"/>
<text x="468" y="849" font-size="14">destination_lon</text>
<text x="653" y="849" font-size="14" font-style="italic">float</text>
<text x="773" y="849" font-size="14">NULL</text>
<line x1="460" y1="857" x2="865" y2="857" stroke="#000" stroke-width="0.4"/>
<text x="468" y="873" font-size="14">cargo_description</text>
<text x="653" y="873" font-size="14" font-style="italic">varchar(512)</text>
<text x="773" y="873" font-size="14">NULL</text>
<line x1="460" y1="881" x2="865" y2="881" stroke="#000" stroke-width="0.4"/>
<text x="468" y="897" font-size="14">created_at</text>
<text x="653" y="897" font-size="14" font-style="italic">timestamptz</text>
<text x="773" y="897" font-size="14">NN</text>
<line x1="460" y1="905" x2="865" y2="905" stroke="#000" stroke-width="0.4"/>
<text x="468" y="921" font-size="14">accepted_at</text>
<text x="653" y="921" font-size="14" font-style="italic">timestamptz</text>
<text x="773" y="921" font-size="14">NULL</text>
<line x1="460" y1="929" x2="865" y2="929" stroke="#000" stroke-width="0.4"/>
<text x="468" y="945" font-size="14">delivered_at</text>
<text x="653" y="945" font-size="14" font-style="italic">timestamptz</text>
<text x="773" y="945" font-size="14">NULL</text>
<line x1="460" y1="953" x2="865" y2="953" stroke="#000" stroke-width="0.4"/>
<text x="468" y="969" font-size="14">cancelled_at</text>
<text x="653" y="969" font-size="14" font-style="italic">timestamptz</text>
<text x="773" y="969" font-size="14">NULL</text>
<text x="660.0" y="1028" text-anchor="middle" font-style="italic" font-size="17">Рисунок 1 – Логическая модель данных (ER-диаграмма) системы Mavix</text>
</svg>
