<svg xmlns="http://www.w3.org/2000/svg" width="1680" height="900" viewBox="0 0 1680 900" font-family="Liberation Serif, Times New Roman, serif">
<rect width="1680" height="900" fill="#fff"/>
<defs><marker id="arr" viewBox="0 0 10 10" refX="9" refY="5" markerWidth="9" markerHeight="9" orient="auto-start-reverse"><path d="M 0 0 L 10 5 L 0 10 z" fill="#000"/></marker><marker id="open" viewBox="0 0 10 10" refX="10" refY="5" markerWidth="11" markerHeight="11" orient="auto"><path d="M 0 0 L 10 5 L 0 10" fill="none" stroke="#000"/></marker></defs>
<rect x="170.0" y="150.0" width="250.0" height="92.0" stroke="#000" fill="none" stroke-width="1.3"/>
<text x="295.0" y="192.0" text-anchor="middle" font-size="14" font-weight="bold">Аутентификация и</text>
<text x="295.0" y="210.0" text-anchor="middle" font-size="14" font-weight="bold">управление парком</text>
<text x="412.0" y="233.0" text-anchor="end" font-size="13" font-style="italic">A1</text>
<rect x="520.0" y="300.0" width="250.0" height="92.0" stroke="#000" fill="none" stroke-width="1.3"/>
<text x="645.0" y="342.0" text-anchor="middle" font-size="14" font-weight="bold">Формирование и</text>
<text x="645.0" y="360.0" text-anchor="middle" font-size="14" font-weight="bold">распределение заявок</text>
<text x="762.0" y="383.0" text-anchor="end" font-size="13" font-style="italic">A2</text>
<rect x="880.0" y="450.0" width="250.0" height="92.0" stroke="#000" fill="none" stroke-width="1.3"/>
<text x="1005.0" y="492.0" text-anchor="middle" font-size="14" font-weight="bold">Установление</text>
<text x="1005.0" y="510.0" text-anchor="middle" font-size="14" font-weight="bold">WebRTC-связи</text>
<text x="1122.0" y="533.0" text-anchor="end" font-size="13" font-style="italic">A3</text>
<rect x="1240.0" y="600.0" width="260.0" height="92.0" stroke="#000" fill="none" stroke-width="1.3"/>
<text x="1370.0" y="642.0" text-anchor="middle" font-size="14" font-weight="bold">Пилотирование и</text>
<text x="1370.0" y="660.0" text-anchor="middle" font-size="14" font-weight="bold">доставка груза</text>
<text x="1492.0" y="683.0" text-anchor="end" font-size="13" font-style="italic">A4</text>
<polyline points="420.0,196.0 470.0,196.0 470.0,346.0 506.0,346.0" stroke="#000" fill="none" stroke-width="0.9"/>
<polygon points="506.0,346.0 494.0,351.0 494.0,341.0" fill="#000" stroke="#000" stroke-width="0.6"/>
<text x="478.0" y="260.0" text-anchor="start" font-size="12" >операторы,</text>
<text x="478.0" y="278.0" text-anchor="start" font-size="12" >дроны (парк)</text>
<polyline points="770.0,346.0 825.0,346.0 825.0,496.0 866.0,496.0" stroke="#000" fill="none" stroke-width="0.9"/>
<polygon points="866.0,496.0 854.0,501.0 854.0,491.0" fill="#000" stroke="#000" stroke-width="0.6"/>
<text x="833.0" y="410.0" text-anchor="start" font-size="12" >принятая</text>
<text x="833.0" y="428.0" text-anchor="start" font-size="12" >заявка</text>
<polyline points="1130.0,496.0 1185.0,496.0 1185.0,646.0 1226.0,646.0" stroke="#000" fill="none" stroke-width="0.9"/>
<polygon points="1226.0,646.0 1214.0,651.0 1214.0,641.0" fill="#000" stroke="#000" stroke-width="0.6"/>
<text x="1193.0" y="560.0" text-anchor="start" font-size="12" >WebRTC-</text>
<text x="1193.0" y="578.0" text-anchor="start" font-size="12" >сессия</text>
<polyline points="295.0,102.0 295.0,136.0" stroke="#000" fill="none" stroke-width="0.9"/>
<polygon points="295.0,136.0 290.0,124.0 300.0,124.0" fill="#000" stroke="#000" stroke-width="0.6"/>
<text x="295.0" y="96.0" text-anchor="middle" font-size="12" >Роли и доступ (JWT)</text>
<polyline points="645.0,252.0 645.0,286.0" stroke="#000" fill="none" stroke-width="0.9"/>
<polygon points="645.0,286.0 640.0,274.0 650.0,274.0" fill="#000" stroke="#000" stroke-width="0.6"/>
<text x="645.0" y="246.0" text-anchor="middle" font-size="12" >Политика приёма «такси»</text>
<polyline points="1005.0,402.0 1005.0,436.0" stroke="#000" fill="none" stroke-width="0.9"/>
<polygon points="1005.0,436.0 1000.0,424.0 1010.0,424.0" fill="#000" stroke="#000" stroke-width="0.6"/>
<text x="1005.0" y="396.0" text-anchor="middle" font-size="12" >Регламенты связи</text>
<polyline points="1370.0,552.0 1370.0,586.0" stroke="#000" fill="none" stroke-width="0.9"/>
<polygon points="1370.0,586.0 1365.0,574.0 1375.0,574.0" fill="#000" stroke="#000" stroke-width="0.6"/>
<text x="1370.0" y="546.0" text-anchor="middle" font-size="12" >Регламенты полёта / failsafe</text>
<polyline points="30.0,196.0 156.0,196.0" stroke="#000" fill="none" stroke-width="0.9"/>
<polygon points="156.0,196.0 144.0,201.0 144.0,191.0" fill="#000" stroke="#000" stroke-width="0.6"/>
<text x="30.0" y="168.0" text-anchor="start" font-size="12" >Запросы оператора</text>
<text x="30.0" y="184.0" text-anchor="start" font-size="12" >и администратора</text>
<polyline points="1500.0,646.0 1626.0,646.0" stroke="#000" fill="none" stroke-width="0.9"/>
<polygon points="1626.0,646.0 1614.0,651.0 1614.0,641.0" fill="#000" stroke="#000" stroke-width="0.6"/>
<text x="1514.0" y="618.0" text-anchor="start" font-size="12" >Доставленный груз,</text>
<text x="1514.0" y="634.0" text-anchor="start" font-size="12" >журнал, телеметрия</text>
<polyline points="295.0,288.0 295.0,256.0" stroke="#000" fill="none" stroke-width="0.9"/>
<polygon points="295.0,256.0 300.0,268.0 290.0,268.0" fill="#000" stroke="#000" stroke-width="0.6"/>
<text x="295.0" y="304.0" text-anchor="middle" font-size="12" >MavixServer, MavixWeb</text>
<polyline points="645.0,438.0 645.0,406.0" stroke="#000" fill="none" stroke-width="0.9"/>
<polygon points="645.0,406.0 650.0,418.0 640.0,418.0" fill="#000" stroke="#000" stroke-width="0.6"/>
<text x="645.0" y="454.0" text-anchor="middle" font-size="12" >MavixServer (БД)</text>
<polyline points="1005.0,588.0 1005.0,556.0" stroke="#000" fill="none" stroke-width="0.9"/>
<polygon points="1005.0,556.0 1010.0,568.0 1000.0,568.0" fill="#000" stroke="#000" stroke-width="0.6"/>
<text x="1005.0" y="604.0" text-anchor="middle" font-size="12" >Сигналинг, STUN/TURN</text>
<polyline points="1370.0,738.0 1370.0,706.0" stroke="#000" fill="none" stroke-width="0.9"/>
<polygon points="1370.0,706.0 1375.0,718.0 1365.0,718.0" fill="#000" stroke="#000" stroke-width="0.6"/>
<text x="1370.0" y="754.0" text-anchor="middle" font-size="12" >Desktop · Board · QGC · оператор</text>
<text x="840.0" y="878" text-anchor="middle" font-style="italic" font-size="17">Рисунок 11 – Функциональная модель IDEF0 (диаграмма A0) системы Mavix</text>
</svg>
