<svg xmlns="http://www.w3.org/2000/svg" width="1520" height="900" viewBox="0 0 1520 900" font-family="Liberation Serif, Times New Roman, serif">
<rect width="1520" height="900" fill="#fff"/>
<defs><marker id="arr" viewBox="0 0 10 10" refX="9" refY="5" markerWidth="9" markerHeight="9" orient="auto-start-reverse"><path d="M 0 0 L 10 5 L 0 10 z" fill="#000"/></marker><marker id="open" viewBox="0 0 10 10" refX="10" refY="5" markerWidth="11" markerHeight="11" orient="auto"><path d="M 0 0 L 10 5 L 0 10" fill="none" stroke="#000"/></marker></defs>
<rect x="130.0" y="70.0" width="240.0" height="56.0" stroke="#000" fill="none" stroke-width="1.2"/>
<text x="250.0" y="94.0" text-anchor="middle" font-size="15" font-weight="bold">MavixDesktop</text>
<text x="250.0" y="112.0" text-anchor="middle" font-size="12" font-style="italic">(оператор)</text>
<line x1="250.0" y1="126.0" x2="250.0" y2="810.0" stroke="#000" stroke-width="0.8" stroke-dasharray="6 5"/>
<rect x="640.0" y="70.0" width="240.0" height="56.0" stroke="#000" fill="none" stroke-width="1.2"/>
<text x="760.0" y="94.0" text-anchor="middle" font-size="15" font-weight="bold">MavixServer</text>
<text x="760.0" y="112.0" text-anchor="middle" font-size="12" font-style="italic">(сигналинг)</text>
<line x1="760.0" y1="126.0" x2="760.0" y2="810.0" stroke="#000" stroke-width="0.8" stroke-dasharray="6 5"/>
<rect x="1150.0" y="70.0" width="240.0" height="56.0" stroke="#000" fill="none" stroke-width="1.2"/>
<text x="1270.0" y="94.0" text-anchor="middle" font-size="15" font-weight="bold">MavixBoard</text>
<text x="1270.0" y="112.0" text-anchor="middle" font-size="12" font-style="italic">(борт)</text>
<line x1="1270.0" y1="126.0" x2="1270.0" y2="810.0" stroke="#000" stroke-width="0.8" stroke-dasharray="6 5"/>
<polyline points="250.0,165.0 751.0,165.0" stroke="#000" fill="none" stroke-width="0.9" marker-end="url(#arr)"/>
<text x="505.0" y="156.0" text-anchor="middle" font-size="13" >1. WS connect { drone_id }</text>
<polyline points="760.0,225.0 1261.0,225.0" stroke="#000" fill="none" stroke-width="0.9" marker-end="url(#arr)"/>
<text x="1015.0" y="216.0" text-anchor="middle" font-size="13" >2. WS connect { gcs_id }</text>
<polyline points="1270.0,265.0 1236.0,265.0 1236.0,285.0 1261.0,285.0" stroke="#000" fill="none" stroke-width="0.9" marker-end="url(#arr)"/>
<text x="1226.0" y="271.0" text-anchor="end" font-size="13" >3. пайплайн → PLAYING; start_session()</text>
<polyline points="1270.0,360.0 769.0,360.0" stroke="#000" fill="none" stroke-width="0.9" marker-end="url(#arr)"/>
<text x="1015.0" y="351.0" text-anchor="middle" font-size="13" >4. SDP offer</text>
<polyline points="760.0,420.0 259.0,420.0" stroke="#000" fill="none" stroke-width="0.9" marker-end="url(#arr)"/>
<text x="505.0" y="411.0" text-anchor="middle" font-size="13" >5. SDP offer</text>
<polyline points="250.0,460.0 284.0,460.0 284.0,480.0 259.0,480.0" stroke="#000" fill="none" stroke-width="0.9" marker-end="url(#arr)"/>
<text x="294.0" y="466.0" text-anchor="start" font-size="13" >6. setRemoteDescription; createAnswer</text>
<polyline points="250.0,555.0 751.0,555.0" stroke="#000" fill="none" stroke-width="0.9" marker-end="url(#arr)"/>
<text x="505.0" y="546.0" text-anchor="middle" font-size="13" >7. SDP answer</text>
<polyline points="760.0,615.0 1261.0,615.0" stroke="#000" fill="none" stroke-width="0.9" marker-end="url(#arr)"/>
<text x="1015.0" y="606.0" text-anchor="middle" font-size="13" >8. SDP answer</text>
<polyline points="250.0,680.0 751.0,680.0" stroke="#000" fill="none" stroke-width="0.9" marker-end="url(#arr)"/>
<text x="505.0" y="671.0" text-anchor="middle" font-size="13" >9. ICE-кандидаты (trickle)</text>
<polyline points="760.0,740.0 1261.0,740.0" stroke="#000" fill="none" stroke-width="0.9" marker-end="url(#arr)"/>
<text x="1015.0" y="731.0" text-anchor="middle" font-size="13" >10. ICE-кандидаты (trickle)</text>
<text x="760.0" y="785.0" text-anchor="middle" font-size="13" font-style="italic">ICE завершено → data-каналы (packet/config/telemetry) открыты, видео H.264 идёт по WebRTC</text>
<text x="760.0" y="878" text-anchor="middle" font-style="italic" font-size="17">Рисунок 10 – Диаграмма последовательности: установление WebRTC-сессии</text>
</svg>
