<svg xmlns="http://www.w3.org/2000/svg" width="1320" height="760" viewBox="0 0 1320 760" font-family="Liberation Serif, Times New Roman, serif">
<rect width="1320" height="760" fill="#fff"/>
<defs><marker id="arr" viewBox="0 0 10 10" refX="9" refY="5" markerWidth="9" markerHeight="9" orient="auto-start-reverse"><path d="M 0 0 L 10 5 L 0 10 z" fill="#000"/></marker><marker id="open" viewBox="0 0 10 10" refX="10" refY="5" markerWidth="11" markerHeight="11" orient="auto"><path d="M 0 0 L 10 5 L 0 10" fill="none" stroke="#000"/></marker></defs>
<rect x="180.0" y="250.0" width="280.0" height="210.0" stroke="#000" fill="none" stroke-width="1.4"/>
<text x="320.0" y="282.0" text-anchor="middle" font-size="16" font-weight="bold">Raspberry Pi</text>
<text x="440.0" y="318.0" text-anchor="end" font-size="12.5" >пин 8 · GPIO14 (TX)</text>
<text x="440.0" y="360.0" text-anchor="end" font-size="12.5" >пин 10 · GPIO15 (RX)</text>
<text x="440.0" y="402.0" text-anchor="end" font-size="12.5" >пин 6 (GND)</text>
<rect x="860.0" y="250.0" width="280.0" height="210.0" stroke="#000" fill="none" stroke-width="1.4"/>
<text x="1000.0" y="282.0" text-anchor="middle" font-size="16" font-weight="bold">Полётный контроллер</text>
<text x="1000.0" y="300.0" text-anchor="middle" font-size="12" font-style="italic">(Betaflight / iNav / PX4)</text>
<text x="872.0" y="318.0" text-anchor="start" font-size="12.5" >T (TX)</text>
<text x="872.0" y="360.0" text-anchor="start" font-size="12.5" >R (RX)</text>
<text x="872.0" y="402.0" text-anchor="start" font-size="12.5" >GND</text>
<text x="872.0" y="444.0" text-anchor="start" font-size="12.5" >AUX (CH8, PWM)</text>
<line x1="460.0" y1="318.0" x2="860.0" y2="360.0" stroke="#000" stroke-width="1.1"/>
<line x1="460.0" y1="360.0" x2="860.0" y2="318.0" stroke="#000" stroke-width="1.1"/>
<line x1="460.0" y1="402.0" x2="860.0" y2="402.0" stroke="#000" stroke-width="1.1"/>
<text x="660.0" y="330.0" text-anchor="middle" font-size="12" >TX → RX</text>
<text x="660.0" y="392.0" text-anchor="middle" font-size="12" >RX ← TX</text>
<text x="660.0" y="418.0" text-anchor="middle" font-size="12" >GND</text>
<text x="660.0" y="470.0" text-anchor="middle" font-size="12" font-style="italic">3.3 В · перекрёстно · преобразователь уровней не нужен</text>
<rect x="180.0" y="90.0" width="280.0" height="80.0" stroke="#000" fill="none" stroke-width="1.2"/>
<text x="320.0" y="126.0" text-anchor="middle" font-size="15" font-weight="bold">Камера</text>
<text x="320.0" y="146.0" text-anchor="middle" font-size="14" font-style="italic">USB / CSI</text>
<polyline points="320.0,170.0 320.0,236.0" stroke="#000" fill="none" stroke-width="0.9"/>
<polygon points="320.0,236.0 315.0,224.0 325.0,224.0" fill="#000" stroke="#000" stroke-width="0.6"/>
<text x="332.0" y="215.0" text-anchor="start" font-size="12" >видеопоток</text>
<rect x="860.0" y="560.0" width="280.0" height="90.0" stroke="#000" fill="none" stroke-width="1.2"/>
<text x="1000.0" y="601.0" text-anchor="middle" font-size="15" font-weight="bold">Серво-сбрасыватель</text>
<text x="1000.0" y="621.0" text-anchor="middle" font-size="14" font-style="italic">(готовый модуль)</text>
<polyline points="1000.0,460.0 1000.0,546.0" stroke="#000" fill="none" stroke-width="0.9"/>
<polygon points="1000.0,546.0 995.0,534.0 1005.0,534.0" fill="#000" stroke="#000" stroke-width="0.6"/>
<text x="1012.0" y="515.0" text-anchor="start" font-size="12" >PWM по CH8 (AUX)</text>
<text x="660.0" y="738" text-anchor="middle" font-style="italic" font-size="17">Рисунок 2 – Схема подключения борта (RPi, полётный контроллер, камера, сброс груза)</text>
</svg>
